<svg id="Layer_1" data-name="Layer 1" xmlns="http://www.w3.org/2000/svg" viewBox="0 0 16 30"><defs><style>.cls-1{fill:#74787b;}.cls-1,.cls-2,.cls-3,.cls-4,.cls-5,.cls-6,.cls-7,.cls-8{stroke:#000;stroke-miterlimit:10;}.cls-1,.cls-2,.cls-3,.cls-4,.cls-5,.cls-6,.cls-8{stroke-width:0.12px;}.cls-2{fill:#999;}.cls-3{fill:#f2f2f2;}.cls-4{fill:#677896;}.cls-5{fill:#ffb12b;}.cls-6{fill:#d99726;}.cls-7{fill:none;stroke-width:0.31px;}.cls-8{fill:#d79526;}</style></defs><title>ym-icon-luggage</title><rect class="cls-1" x="13.28" y="27.69" width="0.67" height="1.31" rx="0.17" ry="0.17" transform="translate(27.23 56.69) rotate(180)"/><path class="cls-2" d="M13.53,28.11h.15a.47.47,0,0,0,.44-.49h0c0-.49,0-.49-.44-.49h-.15c-.43,0-.43,0-.43.49h0A.46.46,0,0,0,13.53,28.11Z"/><rect class="cls-1" x="1.95" y="27.69" width="0.75" height="1.31" rx="0.19" ry="0.19"/><path class="cls-3" d="M14.11,27.26a.45.45,0,0,1-.2,0,4.17,4.17,0,0,0-.5,0,.87.87,0,0,0-.56.15,1.65,1.65,0,0,0-.42.76.33.33,0,0,1-.22.21.15.15,0,0,1-.15-.09.39.39,0,0,1-.06-.19,2,2,0,0,1,.06-1,1.15,1.15,0,0,1,.67-.66,1.55,1.55,0,0,1,.43-.07,1.62,1.62,0,0,1,.31,0l.19.08c.18.09.36.17.53.27s.16.18.1.34A.35.35,0,0,1,14.11,27.26Z"/><path class="cls-2" d="M2.41,28.11H2.24a.49.49,0,0,1-.48-.49h0c0-.49,0-.49.48-.49h.17c.48,0,.48,0,.48.49h0A.48.48,0,0,1,2.41,28.11Z"/><path class="cls-3" d="M1.75,27.26a.54.54,0,0,0,.22,0,5,5,0,0,1,.55,0,1.06,1.06,0,0,1,.63.15,1.55,1.55,0,0,1,.46.76c0,.09.1.2.2.21A.19.19,0,0,0,4,28.28a.84.84,0,0,0,.07-.19,1.76,1.76,0,0,0-.08-1,1.13,1.13,0,0,0-.68-.66,2,2,0,0,0-.49-.07,1.94,1.94,0,0,0-.34,0l-.22.08-.59.27c-.15.07-.17.18-.1.34A.35.35,0,0,0,1.75,27.26Z"/><path class="cls-4" d="M1.49,14.17v-2.9A1.57,1.57,0,0,1,3.07,9.7h9.68a1.57,1.57,0,0,1,1.57,1.57v2.81Z"/><path class="cls-5" d="M12.11,27.68l0,.48a.2.2,0,0,1-.2.18H4c-.27,0,0-1-.66-1.38a3.6,3.6,0,0,0-1.88-.19V11.51A1.58,1.58,0,0,1,3.07,9.93h9.68a1.57,1.57,0,0,1,1.57,1.58V26.77c-1.06,0-1.32-.08-1.79.23a1.52,1.52,0,0,0-.37.5A.78.78,0,0,0,12.11,27.68Z"/><path class="cls-6" d="M13,10a1.51,1.51,0,0,1,1.36,1.56V26.77H13Z"/><path class="cls-6" d="M2.79,26.77a4.47,4.47,0,0,0-1.3,0V11.51A1.58,1.58,0,0,1,2.7,10Z"/><rect class="cls-4" x="5.78" y="11.31" width="4.21" height="0.68" rx="0.18" ry="0.18"/><path class="cls-7" d="M5.58,9.7c0-.4,1-.72,2.34-.72s2.34.32,2.34.72"/><path class="cls-7" d="M5.65,9.66V2.77A1.45,1.45,0,0,1,7.06,1.28H8.71a1.45,1.45,0,0,1,1.41,1.49V9.66"/><path class="cls-1" d="M8.66,2.06,8.8,2A1.48,1.48,0,0,1,9.27,2l.2,0h0a.29.29,0,0,1,.22.28v.31a.26.26,0,0,0,.25.26c.69,0,.67.06.67-.86V1.82c0-.44-.41-.63-.9-.68l-.15,0-.44-.07a1.77,1.77,0,0,0-.56,0H7.27a1.81,1.81,0,0,0-.57,0l-.45.07-.15,0c-.5.05-.92.24-.92.68V2c0,.92,0,.88.68.86a.24.24,0,0,0,.25-.26V2.28A.29.29,0,0,1,6.33,2h0l.21,0A1.48,1.48,0,0,1,7,2l.14,0A7.62,7.62,0,0,0,8.66,2.06Z"/><rect class="cls-8" x="3.35" y="18.87" width="9.07" height="0.38" rx="0.1" ry="0.1"/><rect class="cls-8" x="3.35" y="19.57" width="9.07" height="0.38" rx="0.1" ry="0.1"/><rect class="cls-8" x="3.35" y="20.26" width="9.07" height="0.38" rx="0.1" ry="0.1"/><rect class="cls-8" x="3.35" y="20.95" width="9.07" height="0.38" rx="0.1" ry="0.1"/><rect class="cls-8" x="3.35" y="21.65" width="9.07" height="0.38" rx="0.1" ry="0.1"/><rect class="cls-8" x="3.35" y="22.34" width="9.07" height="0.38" rx="0.1" ry="0.1"/><rect class="cls-8" x="3.35" y="23.03" width="9.07" height="0.38" rx="0.1" ry="0.1"/><rect class="cls-8" x="3.35" y="23.73" width="9.07" height="0.38" rx="0.1" ry="0.1"/><rect class="cls-8" x="3.35" y="24.42" width="9.07" height="0.38" rx="0.1" ry="0.1"/><rect class="cls-8" x="3.35" y="25.11" width="9.07" height="0.38" rx="0.1" ry="0.1"/></svg>