<?xml version="1.0" encoding="utf-8"?>
<!-- Generator: Adobe Illustrator 22.1.0, SVG Export Plug-In . SVG Version: 6.00 Build 0)  -->
<svg version="1.1" id="Layer_1" xmlns="http://www.w3.org/2000/svg" xmlns:xlink="http://www.w3.org/1999/xlink" x="0px" y="0px"
	 viewBox="0 0 46 46" style="enable-background:new 0 0 46 46;" xml:space="preserve">
<style type="text/css">
	.st0{fill:#677794;}
	.st1{fill:#74787B;stroke:#000000;stroke-width:0.123;stroke-miterlimit:10;}
	.st2{fill:#999999;stroke:#000000;stroke-width:0.123;stroke-miterlimit:10;}
	.st3{fill:#F2F2F2;stroke:#000000;stroke-width:0.123;stroke-miterlimit:10;}
	.st4{fill:#677896;stroke:#000000;stroke-width:0.123;stroke-miterlimit:10;}
	.st5{fill:#FFB12B;stroke:#000000;stroke-width:0.123;stroke-miterlimit:10;}
	.st6{fill:#D99726;stroke:#000000;stroke-width:0.123;stroke-miterlimit:10;}
	.st7{fill:none;stroke:#000000;stroke-width:0.3076;stroke-miterlimit:10;}
	.st8{fill:#D79526;stroke:#000000;stroke-width:0.123;stroke-miterlimit:10;}
	.st9{fill:#5E6D87;}
	.st10{fill:#74787B;stroke:#000000;stroke-width:0.1055;stroke-miterlimit:10;}
	.st11{fill:#999999;stroke:#000000;stroke-width:0.1055;stroke-miterlimit:10;}
	.st12{fill:#F2F2F2;stroke:#000000;stroke-width:0.1055;stroke-miterlimit:10;}
	.st13{fill:#677896;stroke:#000000;stroke-width:0.1055;stroke-miterlimit:10;}
	.st14{fill:#FFB12B;stroke:#000000;stroke-width:0.1055;stroke-miterlimit:10;}
	.st15{fill:#D99726;stroke:#000000;stroke-width:0.1055;stroke-miterlimit:10;}
	.st16{fill:none;stroke:#000000;stroke-width:0.2637;stroke-miterlimit:10;}
	.st17{fill:#D79526;stroke:#000000;stroke-width:0.1055;stroke-miterlimit:10;}
	.st18{fill:#040404;}
	.st19{fill:#EA4124;stroke:#000000;stroke-width:0.1102;stroke-miterlimit:10;}
	.st20{fill:#676767;}
	.st21{fill:#E45166;stroke:#000000;stroke-width:0.1277;stroke-miterlimit:10;}
	.st22{fill:#D73145;stroke:#000000;stroke-width:0.1277;stroke-miterlimit:10;}
	.st23{fill:#21B2AF;stroke:#000000;stroke-width:0.1277;stroke-miterlimit:10;}
	.st24{fill:#1A9795;stroke:#000000;stroke-width:0.1277;stroke-miterlimit:10;}
	.st25{fill:#F0B72B;stroke:#000000;stroke-width:0.1277;stroke-miterlimit:10;}
	.st26{fill:#F29A2F;stroke:#000000;stroke-width:0.1277;stroke-miterlimit:10;}
	.st27{fill:#2DB0B4;stroke:#000000;stroke-width:0.1277;stroke-miterlimit:10;}
	.st28{fill:#E4505C;stroke:#000000;stroke-width:0.1277;stroke-miterlimit:10;}
	.st29{fill:#712355;stroke:#000000;stroke-width:0.1277;stroke-miterlimit:10;}
	.st30{fill:#DD505B;stroke:#000000;stroke-width:0.1277;stroke-miterlimit:10;}
	.st31{fill:#23B2B3;stroke:#000000;stroke-width:0.1277;stroke-miterlimit:10;}
	.st32{fill:#1B989A;stroke:#000000;stroke-width:0.1277;stroke-miterlimit:10;}
	.st33{fill:#DD284F;stroke:#000000;stroke-width:0.1277;stroke-miterlimit:10;}
	.st34{fill:#5D1F4E;stroke:#000000;stroke-width:0.1277;stroke-miterlimit:10;}
	.st35{fill:#18969C;stroke:#000000;stroke-width:0.1277;stroke-miterlimit:10;}
	.st36{fill:#712452;stroke:#000000;stroke-width:0.1277;stroke-miterlimit:10;}
	.st37{fill:#6E2356;stroke:#000000;stroke-width:0.1277;stroke-miterlimit:10;}
	.st38{fill:#611E4E;stroke:#000000;stroke-width:0.1277;stroke-miterlimit:10;}
	.st39{fill:#60204F;stroke:#000000;stroke-width:0.4294;stroke-miterlimit:10;}
	.st40{fill:#DC304C;stroke:#000000;stroke-width:0.5367;stroke-miterlimit:10;}
</style>
<circle class="st0" cx="-73" cy="15" r="14"/>
<g>
	<text transform="matrix(1 0 0 1 -81.4072 18.0537)"><tspan x="0" y="0" style="fill:#FFB12B; font-family:'Montserrat-Bold'; font-size:10.4807px;">Y</tspan><tspan x="7.1" y="0" style="fill:#EDEDED; font-family:'Montserrat-Bold'; font-size:10.4807px;">M</tspan></text>
</g>
<g>
	<path class="st1" d="M-38.6,29h0.3c0.1,0,0.2-0.1,0.2-0.2v-1c0-0.1-0.1-0.2-0.2-0.2h-0.3c-0.1,0-0.2,0.1-0.2,0.2v1
		C-38.7,28.9-38.6,29-38.6,29z"/>
	<path class="st2" d="M-38.5,28.1h0.2c0.2,0,0.4-0.2,0.4-0.5l0,0c0-0.5,0-0.5-0.4-0.5h-0.2c-0.4,0-0.4,0-0.4,0.5l0,0
		C-38.9,27.9-38.7,28.1-38.5,28.1z"/>
	<path class="st1" d="M-49.5,29h-0.4c-0.1,0-0.2-0.1-0.2-0.2v-0.9c0-0.1,0.1-0.2,0.2-0.2h0.4c0.1,0,0.2,0.1,0.2,0.2v0.9
		C-49.3,28.9-49.4,29-49.5,29z"/>
	<path class="st3" d="M-37.9,27.3c-0.1,0-0.1,0-0.2,0c-0.2,0-0.3,0-0.5,0c-0.2,0-0.4,0-0.6,0.1c-0.2,0.2-0.3,0.5-0.4,0.8
		c0,0.1-0.1,0.2-0.2,0.2c-0.1,0-0.1,0-0.2-0.1c0-0.1-0.1-0.1-0.1-0.2c-0.1-0.3,0-0.7,0.1-1c0.1-0.3,0.4-0.6,0.7-0.7
		c0.1,0,0.3-0.1,0.4-0.1c0.1,0,0.2,0,0.3,0c0.1,0,0.1,0.1,0.2,0.1c0.2,0.1,0.4,0.2,0.5,0.3c0.1,0.1,0.2,0.2,0.1,0.3
		C-37.7,27.2-37.8,27.2-37.9,27.3z"/>
	<path class="st2" d="M-49.6,28.1h-0.2c-0.3,0-0.5-0.2-0.5-0.5l0,0c0-0.5,0-0.5,0.5-0.5h0.2c0.5,0,0.5,0,0.5,0.5l0,0
		C-49.1,27.9-49.3,28.1-49.6,28.1z"/>
	<path class="st3" d="M-50.3,27.3c0.1,0,0.1,0,0.2,0c0.2,0,0.4,0,0.6,0c0.2,0,0.4,0,0.6,0.1c0.2,0.2,0.4,0.5,0.5,0.8
		c0,0.1,0.1,0.2,0.2,0.2c0.1,0,0.1,0,0.2-0.1c0-0.1,0.1-0.1,0.1-0.2c0.1-0.3,0.1-0.7-0.1-1s-0.4-0.6-0.7-0.7c-0.2,0-0.3-0.1-0.5-0.1
		c-0.1,0-0.2,0-0.3,0c-0.1,0-0.1,0.1-0.2,0.1c-0.2,0.1-0.4,0.2-0.6,0.3c-0.1,0.1-0.2,0.2-0.1,0.3C-50.4,27.2-50.3,27.2-50.3,27.3z"
		/>
	<path class="st4" d="M-50.5,14.2v-2.9c0-0.9,0.7-1.6,1.6-1.6h9.7c0.9,0,1.6,0.7,1.6,1.6v2.8L-50.5,14.2z"/>
	<path class="st5" d="M-39.9,27.7l-0.1,0.5c0,0.1-0.1,0.2-0.2,0.2H-48c-0.3,0,0-1-0.7-1.4c-0.7-0.4-1.9-0.2-1.9-0.2V11.5
		c0-0.9,0.7-1.6,1.6-1.6h9.7c0.9,0,1.6,0.7,1.6,1.6v15.3c-1.1,0-1.3-0.1-1.8,0.2c-0.1,0.1-0.3,0.3-0.4,0.5
		C-39.9,27.6-39.9,27.6-39.9,27.7z"/>
	<path class="st6" d="M-39,9.9c0.7,0,1.4,0.7,1.4,1.6v15.3c-0.5,0-1,0-1.3,0L-39,9.9z"/>
	<path class="st6" d="M-49.2,26.8c-0.6-0.1-1.3,0-1.3,0V11.5c0-0.7,0.5-1.4,1.2-1.5L-49.2,26.8z"/>
	<path class="st4" d="M-42.2,12H-46c-0.1,0-0.2-0.1-0.2-0.2v-0.3c0-0.1,0.1-0.2,0.2-0.2h3.9c0.1,0,0.2,0.1,0.2,0.2v0.3
		C-42,11.9-42.1,12-42.2,12z"/>
	<path class="st7" d="M-46.4,9.7c0-0.4,1-0.7,2.3-0.7c1.3,0,2.3,0.3,2.3,0.7"/>
	<path class="st7" d="M-46.4,9.7V2.8c0-0.8,0.6-1.5,1.4-1.5h1.6c0.8,0,1.4,0.7,1.4,1.5v6.9"/>
	<path class="st1" d="M-43.3,2.1l0.1,0c0.2,0,0.3-0.1,0.5-0.1c0.1,0,0.1,0,0.2,0v0c0.1,0,0.2,0.2,0.2,0.3l0,0.3
		c0,0.1,0.1,0.3,0.2,0.3c0.7,0,0.7,0.1,0.7-0.9V1.8c0-0.4-0.4-0.6-0.9-0.7c-0.1,0-0.1,0-0.2,0L-42.9,1c-0.2,0-0.3-0.1-0.6,0
		c0,0-1.2,0-1.3,0c-0.2,0-0.3,0-0.6,0l-0.4,0.1c-0.1,0-0.1,0-0.2,0c-0.5,0-0.9,0.2-0.9,0.7V2c0,0.9,0,0.9,0.7,0.9
		c0.1,0,0.3-0.1,0.3-0.3l0-0.3c0-0.1,0.1-0.3,0.2-0.3v0c0.1,0,0.1,0,0.2,0c0.2,0,0.3,0,0.5,0.1l0.1,0C-44.7,2.1-43.5,2.1-43.3,2.1z"
		/>
	<g>
		<g>
			<path class="st8" d="M-39.7,19.3h-8.9c-0.1,0-0.1,0-0.1-0.1V19c0-0.1,0-0.1,0.1-0.1h8.9c0.1,0,0.1,0,0.1,0.1L-39.7,19.3
				C-39.6,19.2-39.6,19.3-39.7,19.3z"/>
			<path class="st8" d="M-39.7,20h-8.9c-0.1,0-0.1,0-0.1-0.1v-0.2c0-0.1,0-0.1,0.1-0.1h8.9c0.1,0,0.1,0,0.1,0.1L-39.7,20
				C-39.6,19.9-39.6,20-39.7,20z"/>
			<path class="st8" d="M-39.7,20.6h-8.9c-0.1,0-0.1,0-0.1-0.1v-0.2c0-0.1,0-0.1,0.1-0.1h8.9c0.1,0,0.1,0,0.1,0.1L-39.7,20.6
				C-39.6,20.6-39.6,20.6-39.7,20.6z"/>
			<path class="st8" d="M-39.7,21.3h-8.9c-0.1,0-0.1,0-0.1-0.1v-0.2c0-0.1,0-0.1,0.1-0.1h8.9c0.1,0,0.1,0,0.1,0.1L-39.7,21.3
				C-39.6,21.3-39.6,21.3-39.7,21.3z"/>
			<path class="st8" d="M-39.7,22h-8.9c-0.1,0-0.1,0-0.1-0.1v-0.2c0-0.1,0-0.1,0.1-0.1h8.9c0.1,0,0.1,0,0.1,0.1L-39.7,22
				C-39.6,22-39.6,22-39.7,22z"/>
			<path class="st8" d="M-39.7,22.7h-8.9c-0.1,0-0.1,0-0.1-0.1v-0.2c0-0.1,0-0.1,0.1-0.1h8.9c0.1,0,0.1,0,0.1,0.1L-39.7,22.7
				C-39.6,22.7-39.6,22.7-39.7,22.7z"/>
			<path class="st8" d="M-39.7,23.4h-8.9c-0.1,0-0.1,0-0.1-0.1v-0.2c0-0.1,0-0.1,0.1-0.1h8.9c0.1,0,0.1,0,0.1,0.1L-39.7,23.4
				C-39.6,23.4-39.6,23.4-39.7,23.4z"/>
			<path class="st8" d="M-39.7,24.1h-8.9c-0.1,0-0.1,0-0.1-0.1v-0.2c0-0.1,0-0.1,0.1-0.1h8.9c0.1,0,0.1,0,0.1,0.1L-39.7,24.1
				C-39.6,24.1-39.6,24.1-39.7,24.1z"/>
			<path class="st8" d="M-39.7,24.8h-8.9c-0.1,0-0.1,0-0.1-0.1v-0.2c0-0.1,0-0.1,0.1-0.1h8.9c0.1,0,0.1,0,0.1,0.1L-39.7,24.8
				C-39.6,24.8-39.6,24.8-39.7,24.8z"/>
			<path class="st8" d="M-39.7,25.5h-8.9c-0.1,0-0.1,0-0.1-0.1v-0.2c0-0.1,0-0.1,0.1-0.1h8.9c0.1,0,0.1,0,0.1,0.1L-39.7,25.5
				C-39.6,25.5-39.6,25.5-39.7,25.5z"/>
		</g>
	</g>
</g>
<g>
	<path class="st0" d="M-18,29c-7.7,0-14-6.3-14-14s6.3-14,14-14"/>
	<path class="st9" d="M-18,1c7.7,0,14,6.3,14,14s-6.3,14-14,14"/>
</g>
<g>
	<path class="st10" d="M-13.3,27h0.3c0.1,0,0.1-0.1,0.1-0.1V26c0-0.1-0.1-0.1-0.1-0.1h-0.3c-0.1,0-0.1,0.1-0.1,0.1v0.8
		C-13.4,26.9-13.4,27-13.3,27z"/>
	<path class="st11" d="M-13.2,26.2h0.1c0.2,0,0.4-0.2,0.4-0.4v0c0-0.4,0-0.4-0.4-0.4h-0.1c-0.4,0-0.4,0-0.4,0.4v0
		C-13.6,26-13.4,26.2-13.2,26.2z"/>
	<path class="st10" d="M-22.7,27H-23c-0.1,0-0.2-0.1-0.2-0.2V26c0-0.1,0.1-0.2,0.2-0.2h0.3c0.1,0,0.2,0.1,0.2,0.2v0.8
		C-22.5,26.9-22.6,27-22.7,27z"/>
	<path class="st12" d="M-12.7,25.5c-0.1,0-0.1,0-0.2,0c-0.1,0-0.3,0-0.4,0c-0.2,0-0.3,0-0.5,0.1c-0.2,0.1-0.3,0.4-0.4,0.7
		c0,0.1-0.1,0.2-0.2,0.2c-0.1,0-0.1,0-0.1-0.1c0,0,0-0.1-0.1-0.2c0-0.3,0-0.6,0.1-0.8s0.3-0.5,0.6-0.6c0.1,0,0.2,0,0.4-0.1
		c0.1,0,0.2,0,0.3,0c0.1,0,0.1,0,0.2,0.1c0.2,0.1,0.3,0.1,0.5,0.2c0.1,0.1,0.1,0.2,0.1,0.3C-12.6,25.4-12.6,25.5-12.7,25.5z"/>
	<path class="st11" d="M-22.7,26.2h-0.1c-0.2,0-0.4-0.2-0.4-0.4v0c0-0.4,0-0.4,0.4-0.4h0.1c0.4,0,0.4,0,0.4,0.4v0
		C-22.3,26-22.5,26.2-22.7,26.2z"/>
	<path class="st12" d="M-23.3,25.5c0.1,0,0.1,0,0.2,0c0.2,0,0.3,0,0.5,0c0.2,0,0.4,0,0.5,0.1c0.2,0.1,0.3,0.4,0.4,0.7
		c0,0.1,0.1,0.2,0.2,0.2c0.1,0,0.1,0,0.1-0.1c0,0,0-0.1,0.1-0.2c0.1-0.3,0-0.6-0.1-0.8s-0.3-0.5-0.6-0.6c-0.1,0-0.3,0-0.4-0.1
		c-0.1,0-0.2,0-0.3,0c-0.1,0-0.1,0-0.2,0.1c-0.2,0.1-0.3,0.1-0.5,0.2c-0.1,0.1-0.2,0.2-0.1,0.3C-23.5,25.4-23.4,25.5-23.3,25.5z"/>
	<path class="st13" d="M-23.5,14.3v-2.5c0-0.7,0.6-1.3,1.3-1.3h8.3c0.7,0,1.3,0.6,1.3,1.3v2.4L-23.5,14.3z"/>
	<path class="st14" d="M-14.4,25.9l0,0.4c0,0.1-0.1,0.2-0.2,0.2h-6.7c-0.2,0,0-0.9-0.6-1.2c-0.6-0.3-1.6-0.2-1.6-0.2V12
		c0-0.7,0.6-1.3,1.3-1.3h8.3c0.7,0,1.3,0.6,1.3,1.3v13.1c-0.9,0-1.1-0.1-1.5,0.2c-0.1,0.1-0.2,0.3-0.3,0.4
		C-14.4,25.8-14.4,25.8-14.4,25.9z"/>
	<path class="st15" d="M-13.7,10.7c0.6,0,1.2,0.6,1.2,1.3v13.1c-0.5,0-0.9,0-1.1,0L-13.7,10.7z"/>
	<path class="st15" d="M-22.4,25.1c-0.5-0.1-1.1,0-1.1,0V12c0-0.6,0.4-1.2,1-1.3L-22.4,25.1z"/>
	<path class="st13" d="M-16.4,12.4h-3.3c-0.1,0-0.2-0.1-0.2-0.2V12c0-0.1,0.1-0.2,0.2-0.2h3.3c0.1,0,0.2,0.1,0.2,0.2v0.3
		C-16.3,12.3-16.3,12.4-16.4,12.4z"/>
	<path class="st16" d="M-20,10.5c0-0.3,0.9-0.6,2-0.6c1.1,0,2,0.3,2,0.6"/>
	<path class="st16" d="M-20,10.4V4.5c0-0.7,0.5-1.3,1.2-1.3h1.4c0.7,0,1.2,0.6,1.2,1.3v5.9"/>
	<path class="st10" d="M-17.4,3.9l0.1,0c0.1,0,0.3-0.1,0.4-0.1c0.1,0,0.1,0,0.2,0v0c0.1,0,0.2,0.1,0.2,0.2l0,0.3
		c0,0.1,0.1,0.2,0.2,0.2c0.6,0,0.6,0,0.6-0.7V3.7c0-0.4-0.4-0.5-0.8-0.6c0,0-0.1,0-0.1,0L-17,3c-0.2,0-0.3,0-0.5,0c0,0-1.1,0-1.1,0
		c-0.2,0-0.3,0-0.5,0l-0.4,0.1c0,0-0.1,0-0.1,0c-0.4,0-0.8,0.2-0.8,0.6v0.1c0,0.8,0,0.8,0.6,0.7c0.1,0,0.2-0.1,0.2-0.2l0-0.3
		c0-0.1,0.1-0.2,0.2-0.2v0c0.1,0,0.1,0,0.2,0c0.1,0,0.3,0,0.4,0.1l0.1,0C-18.5,3.9-17.5,3.9-17.4,3.9z"/>
	<g>
		<g>
			<path class="st17" d="M-14.3,18.6h-7.6c0,0-0.1,0-0.1-0.1v-0.2c0,0,0-0.1,0.1-0.1h7.6c0,0,0.1,0,0.1,0.1L-14.3,18.6
				C-14.2,18.6-14.2,18.6-14.3,18.6z"/>
			<path class="st17" d="M-14.3,19.2h-7.6c0,0-0.1,0-0.1-0.1V19c0,0,0-0.1,0.1-0.1h7.6c0,0,0.1,0,0.1,0.1L-14.3,19.2
				C-14.2,19.2-14.2,19.2-14.3,19.2z"/>
			<path class="st17" d="M-14.3,19.8h-7.6c0,0-0.1,0-0.1-0.1v-0.2c0,0,0-0.1,0.1-0.1h7.6c0,0,0.1,0,0.1,0.1L-14.3,19.8
				C-14.2,19.8-14.2,19.8-14.3,19.8z"/>
			<path class="st17" d="M-14.3,20.4h-7.6c0,0-0.1,0-0.1-0.1v-0.2c0,0,0-0.1,0.1-0.1h7.6c0,0,0.1,0,0.1,0.1L-14.3,20.4
				C-14.2,20.4-14.2,20.4-14.3,20.4z"/>
			<path class="st17" d="M-14.3,21h-7.6c0,0-0.1,0-0.1-0.1v-0.2c0,0,0-0.1,0.1-0.1h7.6c0,0,0.1,0,0.1,0.1L-14.3,21
				C-14.2,21-14.2,21-14.3,21z"/>
			<path class="st17" d="M-14.3,21.6h-7.6c0,0-0.1,0-0.1-0.1v-0.2c0,0,0-0.1,0.1-0.1h7.6c0,0,0.1,0,0.1,0.1L-14.3,21.6
				C-14.2,21.6-14.2,21.6-14.3,21.6z"/>
			<path class="st17" d="M-14.3,22.2h-7.6c0,0-0.1,0-0.1-0.1V22c0,0,0-0.1,0.1-0.1h7.6c0,0,0.1,0,0.1,0.1L-14.3,22.2
				C-14.2,22.2-14.2,22.2-14.3,22.2z"/>
			<path class="st17" d="M-14.3,22.8h-7.6c0,0-0.1,0-0.1-0.1v-0.2c0,0,0-0.1,0.1-0.1h7.6c0,0,0.1,0,0.1,0.1L-14.3,22.8
				C-14.2,22.8-14.2,22.8-14.3,22.8z"/>
			<path class="st17" d="M-14.3,23.4h-7.6c0,0-0.1,0-0.1-0.1v-0.2c0,0,0-0.1,0.1-0.1h7.6c0,0,0.1,0,0.1,0.1L-14.3,23.4
				C-14.2,23.4-14.2,23.4-14.3,23.4z"/>
			<path class="st17" d="M-14.3,24h-7.6c0,0-0.1,0-0.1-0.1v-0.2c0,0,0-0.1,0.1-0.1h7.6c0,0,0.1,0,0.1,0.1L-14.3,24
				C-14.2,24-14.2,24-14.3,24z"/>
		</g>
	</g>
</g>
<g>
	<g>
		<path class="st18" d="M23.1,44.8c-2.2,0-4.3,0-6.5,0c-1.3,0-2.5,0-3.8,0c-0.2,0-0.3-0.1-0.2-0.3c0-1,0-2.1,0-3.1
			c0-0.2-0.1-0.3-0.2-0.3c-0.9-0.3-1.3-0.9-1.5-1.8c0-0.2-0.1-0.2-0.2-0.2c-1.3,0.3-2.6-0.7-2.5-2.2c0-0.2-0.1-0.1-0.2-0.1
			c-0.7,0-1.2-0.2-1.7-0.8c-0.4-0.5-0.6-1.1-0.4-1.8c0-0.2,0-0.2-0.2-0.3c-1.4-0.2-2.1-1.6-1.6-2.9c0.1-0.2,0-0.2-0.1-0.2
			C2.6,30.6,2,29,2.9,27.8c0.1-0.1,0-0.2-0.1-0.2c-0.9-0.5-1.4-1.5-1.1-2.4c0.1-0.3,0.2-0.6,0.5-0.8c0.1-0.1,0.1-0.1,0-0.2
			c-1.1-0.9-1.1-2.5,0.1-3.3c0.1-0.1,0.1-0.1,0-0.3c-1-1.1-0.7-2.6,0.6-3.3C3,17.2,3,17.1,2.9,17c-0.7-1.1-0.3-2.6,1.1-3.1
			c0.2-0.1,0.2-0.1,0.1-0.3c-0.4-1,0.1-2.3,1.1-2.7c0.2-0.1,0.4-0.2,0.6-0.2c0.2,0,0.2-0.1,0.2-0.2c-0.1-0.6,0-1.2,0.4-1.7
			C6.7,8.3,7.2,8,7.9,8c0.2,0,0.3,0,0.3-0.3c-0.1-1.3,1.1-2.3,2.4-2.1c0.3,0.1,0.3,0.1,0.4-0.3c0.2-1.3,1.6-2,2.8-1.5
			c0.2,0.1,0.3,0.1,0.3-0.2c0.4-1.3,1.9-1.9,3.1-1.1c0.2,0.1,0.2,0.1,0.3-0.1c0.6-1.3,2.3-1.5,3.3-0.6C20.8,2,20.9,2,21,1.9
			c0.9-1.1,2.4-1.1,3.3,0c0.1,0.1,0.1,0.1,0.3,0c0.7-0.6,1.4-0.7,2.3-0.4c0.4,0.2,0.8,0.5,1,0.9c0.1,0.1,0.1,0.1,0.3,0.1
			c1.1-0.7,2.7-0.2,3.1,1.1c0.1,0.2,0.1,0.2,0.3,0.1c0.8-0.4,1.9-0.1,2.5,0.7c0.1,0.2,0.2,0.1,0.3,0c0.9-0.9,1.8-1.9,2.7-2.8
			c0.5-0.6,1.2-0.5,1.9-0.3c0.6,0.1,1,0.5,1.4,0.9c0.7,0.7,1.4,1.5,2.1,2.2c0.6,0.7,0.9,1.4,0.8,2.4c0,0.4-0.2,0.7-0.5,0.9
			c-1,0.9-2,1.7-3.1,2.6c0,0-0.1,0.1-0.1,0.2c0,0.1,0.1,0.1,0.2,0.1c1.2,0,2.3,1.4,1.7,2.8c0,0.1-0.1,0.2,0.1,0.3
			c1.4,0.4,2,1.8,1.2,3.1c-0.1,0.2-0.1,0.2,0.1,0.3c1.2,0.5,1.6,2.1,0.7,3.1c0,0,0,0,0,0.1c-0.2,0.1-0.1,0.2,0,0.4
			c0.4,0.3,0.7,0.7,0.8,1.2c0.2,0.8-0.1,1.5-0.7,2.1c-0.1,0.1-0.1,0.1,0,0.2c1,0.9,0.7,2.6-0.5,3.3c-0.2,0.1-0.2,0.1-0.1,0.3
			c0.8,1.1,0.3,2.6-1,3.1c-0.2,0.1-0.2,0.1-0.1,0.3c0.6,1.2-0.2,2.7-1.5,2.9c-0.2,0-0.2,0.1-0.2,0.2c0.4,1.2-0.6,2.6-1.9,2.6
			c-0.1,0-0.1,0-0.2,0c-0.2,0-0.2,0-0.2,0.2c0.1,1-0.5,1.8-1.3,2.1C36.3,39,35.9,39,35.5,39c-0.1,0-0.2-0.1-0.2,0.1
			c-0.1,0.9-0.6,1.6-1.4,1.9c-0.2,0.1-0.2,0.1-0.2,0.3c0,1.1,0,2.2,0,3.4c0,0.2,0,0.2-0.2,0.2c-1.1,0-2.3,0-3.4,0
			C27.7,44.8,25.4,44.8,23.1,44.8C23.1,44.8,23.1,44.8,23.1,44.8z M31.4,8.4c0,0,0.1-0.1,0.1-0.1c1.3-1.1,2.5-2.1,3.8-3.2
			c0.1-0.1,0.2-0.2,0.3-0.2c0.2-0.1,0.5-0.1,0.6,0.1c0.2,0.2,0.2,0.4,0.1,0.6c-0.1,0.2-0.2,0.3-0.3,0.4c-1,1-2,2-3,3.1
			c-0.1,0.1-0.2,0.2,0,0.3c0.2,0.1,0.2,0,0.3-0.1c1.1-0.9,2.2-1.8,3.2-2.8c0.1-0.1,0.3-0.2,0.5-0.2c0.4,0,0.6,0.2,0.6,0.6
			c0,0.3-0.2,0.4-0.4,0.6c-1,1-2,2-2.9,3c0,0-0.2,0.1-0.1,0.2c0.1,0.1,0.2,0.2,0.3,0.1c0.8-0.7,1.7-1.4,2.5-2.1
			c0.3-0.3,0.6-0.5,0.9-0.8c0.2-0.2,0.6-0.2,0.8,0c0.2,0.2,0.3,0.4,0.2,0.7c-0.1,0.1-0.2,0.3-0.3,0.4c-1.1,1.1-2.2,2.3-3.3,3.4
			c-0.1,0.1-0.1,0.1,0,0.2c0.1,0.1,0.1,0,0.2,0c0.5-0.4,0.9-0.7,1.4-1.1c1.6-1.4,3.3-2.8,4.9-4.2c0.5-0.4,0.6-0.8,0.5-1.4
			c-0.1-0.4-0.3-0.8-0.6-1.1c-0.7-0.7-1.4-1.5-2-2.2C39.5,2,39,1.8,38.4,1.6c-0.4-0.1-0.8,0-1.1,0.3c-0.5,0.6-1,1.1-1.6,1.6
			c-1.4,1.5-2.8,2.9-4.2,4.4C31.4,8.1,31.3,8.2,31.4,8.4z M31.2,9.6c0.4-0.1,0.7-0.2,1.1-0.1c0.6,0.2,0.9,0.7,1,1.3
			c0,0.2,0.1,0.2,0.2,0.2c0.3,0,0.6,0.2,0.8,0.5c0.1,0.3,0.1,0.5,0.1,0.8c0,0.1,0,0.2,0.2,0.2c0.4,0,0.6,0.2,0.8,0.6
			c0,0,0,0.1,0.1,0.1c-0.1-0.4-0.4-0.7-0.8-0.8c-0.2-0.1-0.2-0.1-0.2-0.3c0-0.1,0-0.2,0-0.2c0-0.6-0.3-1-0.9-1
			c-0.2,0-0.2-0.1-0.2-0.2c0-0.7-0.4-1.1-1.1-1.3c-0.3-0.1-0.6-0.1-0.8,0c-0.2,0-0.3,0-0.3-0.2c0-0.3-0.1-0.5-0.2-0.8
			C31,8,30.7,7.7,30.3,7.6C31,8.1,31.2,8.8,31.2,9.6z"/>
		<path class="st19" d="M31.4,8.4c-0.1-0.2,0-0.3,0.1-0.4c1.4-1.5,2.8-3,4.2-4.4c0.5-0.5,1.1-1.1,1.6-1.6c0.3-0.3,0.7-0.4,1.1-0.3
			c0.6,0.1,1,0.4,1.4,0.8c0.7,0.7,1.4,1.4,2,2.2c0.3,0.3,0.5,0.7,0.6,1.1c0.1,0.6,0,1-0.5,1.4c-1.7,1.4-3.3,2.8-4.9,4.2
			c-0.4,0.4-0.9,0.7-1.4,1.1c-0.1,0-0.1,0.1-0.2,0c-0.1-0.1,0-0.1,0-0.2c1.1-1.2,2.2-2.3,3.3-3.4c0.1-0.1,0.2-0.2,0.3-0.4
			c0.1-0.3,0-0.5-0.2-0.7c-0.2-0.2-0.5-0.2-0.8,0c-0.3,0.3-0.6,0.5-0.9,0.8c-0.8,0.7-1.7,1.4-2.5,2.1c-0.2,0.2-0.2,0-0.3-0.1
			c-0.1-0.1,0-0.2,0.1-0.2c1-1,1.9-2,2.9-3c0.2-0.2,0.3-0.3,0.4-0.6c0-0.4-0.2-0.7-0.6-0.6c-0.2,0-0.3,0.1-0.5,0.2
			c-1.1,0.9-2.1,1.9-3.2,2.8c-0.1,0.1-0.1,0.2-0.3,0.1c-0.2-0.1-0.2-0.2,0-0.3c1-1,2-2.1,3-3.1c0.1-0.1,0.2-0.2,0.3-0.4
			c0.1-0.2,0.1-0.5-0.1-0.6c-0.2-0.2-0.4-0.2-0.6-0.1c-0.1,0-0.2,0.1-0.3,0.2c-1.2,1.1-2.5,2.2-3.8,3.2C31.5,8.3,31.5,8.4,31.4,8.4z
			"/>
		<path class="st20" d="M31.2,9.6c0-0.8-0.2-1.5-0.9-1.9C30.7,7.7,31,8,31.1,8.3c0.1,0.2,0.2,0.5,0.2,0.8c0,0.2,0.1,0.2,0.3,0.2
			c0.3-0.1,0.6-0.1,0.8,0c0.7,0.2,1.1,0.6,1.1,1.3c0,0.2,0,0.2,0.2,0.2c0.6,0,0.9,0.4,0.9,1c0,0.1,0,0.2,0,0.2c0,0.2,0,0.3,0.2,0.3
			c0.4,0.1,0.7,0.4,0.8,0.8c-0.1,0-0.1-0.1-0.1-0.1c-0.2-0.3-0.5-0.5-0.8-0.6c-0.2,0-0.2-0.1-0.2-0.2c0-0.3,0-0.6-0.1-0.8
			c-0.2-0.3-0.4-0.5-0.8-0.5c-0.2,0-0.2-0.1-0.2-0.2c-0.1-0.6-0.4-1.1-1-1.3C32,9.4,31.6,9.4,31.2,9.6z"/>
		<path class="st18" d="M26,35.9c0,0.7,0.6,1.3,1.3,1.3c0.7,0,1.3-0.6,1.3-1.3c0-0.7-0.6-1.3-1.3-1.3C26.6,34.6,26,35.2,26,35.9z"/>
	</g>
	<g>
		<g>
			
				<rect x="12.8" y="34.7" transform="matrix(1 -2.636280e-03 2.636280e-03 1 -9.417875e-02 4.754016e-02)" class="st21" width="10.4" height="2"/>
			
				<rect x="23.2" y="34.7" transform="matrix(1 -2.636280e-03 2.636280e-03 1 -9.407081e-02 7.483388e-02)" class="st22" width="10.3" height="2"/>
			
				<rect x="13.9" y="35.3" transform="matrix(1 -2.636280e-03 2.636280e-03 1 -9.422559e-02 4.092568e-02)" class="st23" width="3.1" height="1"/>
			
				<rect x="29.4" y="35.2" transform="matrix(1 -2.636280e-03 2.636280e-03 1 -9.406425e-02 8.172670e-02)" class="st24" width="3.1" height="1"/>
			
				<rect x="12.8" y="36.7" transform="matrix(1 -2.636280e-03 2.636280e-03 1 -0.1076 4.759318e-02)" class="st25" width="10.4" height="8.2"/>
			
				<rect x="23.2" y="36.7" transform="matrix(1 -2.636280e-03 2.636280e-03 1 -0.1075 7.488691e-02)" class="st26" width="10.3" height="8.2"/>
			
				<rect x="20.9" y="39.2" transform="matrix(1 -2.636280e-03 2.636280e-03 1 -0.1063 5.826838e-02)" class="st27" width="2.3" height="2.3"/>
			
				<rect x="20.9" y="41.5" transform="matrix(1 -2.636280e-03 2.636280e-03 1 -0.1106 5.828540e-02)" class="st28" width="2.3" height="1"/>
			
				<rect x="20.9" y="42.5" transform="matrix(1 -2.636280e-03 2.636280e-03 1 -0.1134 5.829663e-02)" class="st29" width="2.3" height="1.2"/>
			
				<rect x="20.9" y="43.7" transform="matrix(1 -2.636280e-03 2.636280e-03 1 -0.1166 5.677089e-02)" class="st30" width="1.2" height="1.2"/>
			
				<rect x="22.1" y="43.7" transform="matrix(1 -2.636280e-03 2.636280e-03 1 -0.1166 5.991341e-02)" class="st31" width="1.1" height="1.2"/>
			
				<rect x="23.2" y="39.2" transform="matrix(1 -2.636280e-03 2.636280e-03 1 -0.1063 6.431168e-02)" class="st32" width="2.3" height="2.3"/>
			
				<rect x="23.2" y="41.5" transform="matrix(1 -2.636280e-03 2.636280e-03 1 -0.1106 6.432869e-02)" class="st33" width="2.3" height="1"/>
			
				<rect x="23.2" y="42.4" transform="matrix(1 -2.636280e-03 2.636280e-03 1 -0.1134 6.433993e-02)" class="st34" width="2.3" height="1.2"/>
			
				<rect x="23.2" y="43.7" transform="matrix(1 -2.636280e-03 2.636280e-03 1 -0.1166 6.286913e-02)" class="st22" width="1.1" height="1.2"/>
			
				<rect x="24.4" y="43.7" transform="matrix(1 -2.636280e-03 2.636280e-03 1 -0.1166 6.589941e-02)" class="st35" width="1.1" height="1.2"/>
			
				<rect x="21.5" y="39.7" transform="matrix(1 -2.636280e-03 2.636280e-03 1 -0.106 5.906934e-02)" class="st36" width="1.7" height="1"/>
			
				<rect x="21.5" y="40.9" transform="matrix(1 -2.636280e-03 2.636280e-03 1 -0.1081 5.907751e-02)" class="st37" width="1.7" height="0.2"/>
			
				<rect x="23.2" y="39.7" transform="matrix(1 -2.636280e-03 2.636280e-03 1 -0.106 6.361829e-02)" class="st38" width="1.7" height="1"/>
			
				<rect x="23.2" y="40.9" transform="matrix(1 -2.636280e-03 2.636280e-03 1 -0.108 6.362647e-02)" class="st38" width="1.7" height="0.2"/>
			
				<ellipse transform="matrix(1 -2.636269e-03 2.636269e-03 1 -9.421784e-02 4.806754e-02)" class="st29" cx="18.2" cy="35.8" rx="0.5" ry="0.5"/>
			
				<ellipse transform="matrix(1 -2.636269e-03 2.636269e-03 1 -9.420074e-02 5.239245e-02)" class="st29" cx="19.8" cy="35.8" rx="0.5" ry="0.5"/>
			
				<ellipse transform="matrix(1 -2.636269e-03 2.636269e-03 1 -0.1004 5.707300e-02)" class="st29" cx="21.6" cy="38.1" rx="0.5" ry="0.5"/>
			
				<ellipse transform="matrix(1 -2.636269e-03 2.636269e-03 1 -0.1004 6.132143e-02)" class="st34" cx="23.2" cy="38.1" rx="0.5" ry="0.5"/>
			
				<ellipse transform="matrix(1 -2.636269e-03 2.636269e-03 1 -0.1004 6.521029e-02)" class="st34" cx="24.7" cy="38.1" rx="0.5" ry="0.5"/>
			
				<ellipse transform="matrix(1 -2.636269e-03 2.636269e-03 1 -0.1076 7.774932e-02)" class="st39" cx="29.4" cy="40.9" rx="2.7" ry="2.6"/>
			<line class="st40" x1="26.8" y1="40.3" x2="32.1" y2="40.3"/>
			<line class="st40" x1="26.8" y1="41.7" x2="32.1" y2="41.7"/>
			
				<ellipse transform="matrix(1 -2.636269e-03 2.636269e-03 1 -0.1078 4.396790e-02)" class="st39" cx="16.6" cy="40.9" rx="2.7" ry="2.6"/>
			<line class="st40" x1="14" y1="40.3" x2="19.3" y2="40.3"/>
			<line class="st40" x1="14" y1="41.8" x2="19.3" y2="41.7"/>
		</g>
	</g>
</g>
</svg>
