<svg id="Layer_1" data-name="Layer 1" xmlns="http://www.w3.org/2000/svg" viewBox="0 0 30 30"><defs><style>.cls-1{fill:#677794;}.cls-2{fill:#5e6d87;}.cls-3{fill:#74787b;}.cls-10,.cls-3,.cls-4,.cls-5,.cls-6,.cls-7,.cls-8,.cls-9{stroke:#000;stroke-miterlimit:10;}.cls-10,.cls-3,.cls-4,.cls-5,.cls-6,.cls-7,.cls-8{stroke-width:0.11px;}.cls-4{fill:#999;}.cls-5{fill:#f2f2f2;}.cls-6{fill:#677896;}.cls-7{fill:#ffb12b;}.cls-8{fill:#d99726;}.cls-9{fill:none;stroke-width:0.26px;}.cls-10{fill:#d79526;}</style></defs><title>ym-icon-luggage-circle</title><path class="cls-1" d="M15,29A14,14,0,0,1,15,1"/><path class="cls-2" d="M15,1a14,14,0,0,1,0,28"/><rect class="cls-3" x="19.57" y="25.87" width="0.58" height="1.12" rx="0.14" ry="0.14" transform="translate(39.72 52.87) rotate(180)"/><path class="cls-4" d="M19.79,26.24h.13a.4.4,0,0,0,.37-.42h0c0-.43,0-.43-.37-.43h-.13c-.37,0-.37,0-.37.43h0A.4.4,0,0,0,19.79,26.24Z"/><rect class="cls-3" x="9.86" y="25.87" width="0.64" height="1.12" rx="0.16" ry="0.16"/><path class="cls-5" d="M20.28,25.5a.47.47,0,0,1-.17,0l-.42,0a.86.86,0,0,0-.48.13,1.46,1.46,0,0,0-.36.66.31.31,0,0,1-.19.18.14.14,0,0,1-.13-.08.52.52,0,0,1-.06-.16,1.62,1.62,0,0,1,.06-.85,1,1,0,0,1,.57-.57,1.18,1.18,0,0,1,.37-.05.75.75,0,0,1,.26,0l.17.07.46.23c.11.06.13.16.08.29A.26.26,0,0,1,20.28,25.5Z"/><rect class="cls-4" x="9.7" y="25.39" width="0.97" height="0.84" rx="0.41" ry="0.41"/><path class="cls-5" d="M9.69,25.5a.61.61,0,0,0,.19,0l.47,0a1.11,1.11,0,0,1,.54.13,1.44,1.44,0,0,1,.4.66c0,.08.08.17.16.18a.17.17,0,0,0,.15-.08.52.52,0,0,0,.06-.16,1.53,1.53,0,0,0-.07-.85A1,1,0,0,0,11,24.8a1.51,1.51,0,0,0-.42-.05,1,1,0,0,0-.29,0l-.19.07-.5.23c-.13.06-.15.16-.09.29A.26.26,0,0,0,9.69,25.5Z"/><path class="cls-6" d="M9.47,14.28V11.8a1.35,1.35,0,0,1,1.35-1.35h8.3a1.36,1.36,0,0,1,1.35,1.35v2.41Z"/><path class="cls-7" d="M18.57,25.86l0,.42a.17.17,0,0,1-.18.15h-6.7c-.24,0,0-.86-.57-1.18a3,3,0,0,0-1.61-.16V12a1.35,1.35,0,0,1,1.35-1.35h8.3A1.36,1.36,0,0,1,20.47,12V25.09c-.92,0-1.14-.07-1.54.19a1.29,1.29,0,0,0-.31.43A.44.44,0,0,0,18.57,25.86Z"/><path class="cls-8" d="M19.3,10.67A1.3,1.3,0,0,1,20.47,12V25.09c-.46,0-.88,0-1.12,0Z"/><path class="cls-8" d="M10.58,25.09a3.58,3.58,0,0,0-1.11,0V12a1.35,1.35,0,0,1,1-1.31Z"/><rect class="cls-6" x="13.14" y="11.83" width="3.61" height="0.58" rx="0.15" ry="0.15"/><path class="cls-9" d="M13,10.45c0-.34.9-.62,2-.62s2,.28,2,.62"/><path class="cls-9" d="M13,10.42V4.51a1.25,1.25,0,0,1,1.21-1.27h1.42a1.25,1.25,0,0,1,1.21,1.27v5.91"/><path class="cls-3" d="M15.61,3.91l.12,0a1.1,1.1,0,0,1,.4-.05l.18,0h0a.24.24,0,0,1,.18.25v.26a.21.21,0,0,0,.21.22c.59,0,.58,0,.58-.74V3.7c0-.38-.35-.54-.77-.58l-.14,0L16,3a1.59,1.59,0,0,0-.48,0h-1.1a1.63,1.63,0,0,0-.49,0l-.38.06-.13,0c-.43,0-.79.2-.79.58v.14c0,.79,0,.76.59.74a.21.21,0,0,0,.21-.22V4.1a.24.24,0,0,1,.18-.25h0l.18,0a1.13,1.13,0,0,1,.41.05l.12,0A7,7,0,0,0,15.61,3.91Z"/><rect class="cls-10" x="11.06" y="18.32" width="7.77" height="0.33" rx="0.09" ry="0.09"/><rect class="cls-10" x="11.06" y="18.91" width="7.77" height="0.33" rx="0.09" ry="0.09"/><rect class="cls-10" x="11.06" y="19.51" width="7.77" height="0.33" rx="0.09" ry="0.09"/><rect class="cls-10" x="11.06" y="20.1" width="7.77" height="0.33" rx="0.09" ry="0.09"/><rect class="cls-10" x="11.06" y="20.69" width="7.77" height="0.33" rx="0.09" ry="0.09"/><rect class="cls-10" x="11.06" y="21.29" width="7.77" height="0.33" rx="0.09" ry="0.09"/><rect class="cls-10" x="11.06" y="21.88" width="7.77" height="0.33" rx="0.09" ry="0.09"/><rect class="cls-10" x="11.06" y="22.48" width="7.77" height="0.33" rx="0.09" ry="0.09"/><rect class="cls-10" x="11.06" y="23.07" width="7.77" height="0.33" rx="0.09" ry="0.09"/><rect class="cls-10" x="11.06" y="23.67" width="7.77" height="0.33" rx="0.09" ry="0.09"/></svg>